<svg class="img-fluid" id="outputsvg" xmlns="http://www.w3.org/2000/svg" style="transform: matrix(0.507, 0, 0, 0.507, 0.182432, 0.125); transform-origin: 50% 50%; cursor: move; max-height: none; transition: none;" width="1506" height="1506" viewBox="0 0 15060 15060"><g id="l2CC7Xc8glRQG7Lqy71UcjS" fill="rgb(137,219,31)" style="transform: none;"><g style="transform: none;"><path id="pKpgtAILx" d="M4470 11269 c-393 -344 -691 -690 -956 -1114 -124 -198 -184 -310 -314 -590 -37 -79 -140 -344 -140 -360 0 -9 -8 -32 -19 -53 -19 -39 -118 -396 -144 -522 -34 -161 -61 -344 -88 -590 -16 -141 -16 -672 0 -840 19 -205 79 -562 121 -720 5 -19 19 -71 30 -115 25 -99 120 -396 130 -410 4 -5 19 -41 33 -80 30 -81 126 -309 147 -347 6 -10 32 -60 59 -110 56 -108 155 -281 182 -320 11 -14 19 -29 19 -32 0 -4 5 -12 10 -19 6 -7 35 -50 66 -97 31 -47 64 -94 74 -105 9 -11 34 -45 55 -75 37 -53 122 -162 177 -225 103 -118 249 -274 329 -350 51 -49 95 -93 97 -97 2 -4 42 -40 90 -80 48 -40 89 -75 92 -79 29 -32 246 -195 380 -284 25 -16 47 -33 48 -37 2 -5 8 -8 12 -8 5 0 54 -29 109 -65 55 -36 103 -65 106 -65 3 0 24 -12 48 -27 57 -36 360 -191 422 -215 27 -11 73 -30 103 -44 29 -13 56 -24 61 -24 5 0 41 -14 81 -31 270 -115 771 -238 1135 -278 256 -29 344 -33 620 -28 474 8 728 41 1170 153 214 54 575 179 575 199 0 6 -67 90 -112 140 -15 17 -39 47 -55 67 -77 100 -160 205 -197 248 -22 27 -79 96 -126 155 -47 58 -132 164 -190 234 -58 71 -132 163 -165 206 -33 42 -70 89 -83 103 -13 15 -35 43 -50 62 -14 19 -39 49 -54 65 -15 17 -77 93 -138 170 -60 77 -128 160 -149 185 -22 25 -56 68 -77 95 -44 58 -87 112 -113 140 -26 28 -224 274 -236 293 -13 20 -50 64 -97 118 -21 22 -38 46 -38 51 0 5 -12 20 -26 34 -14 13 -62 69 -105 124 -186 234 -232 292 -277 343 -26 30 -51 62 -56 71 -5 9 -32 44 -60 77 -28 34 -96 117 -151 184 -55 68 -105 128 -110 134 -10 11 -125 155 -175 221 -54 70 -153 192 -183 226 -63 69 -157 187 -157 195 0 5 -28 41 -63 80 -119 136 -147 173 -147 194 0 7 244 10 764 10 504 0 767 3 771 10 6 10 -34 77 -82 135 -35 43 -334 444 -404 543 -33 46 -85 116 -117 156 -31 41 -91 120 -134 177 -42 57 -108 145 -147 196 -39 51 -71 95 -71 99 0 3 -11 20 -26 38 -72 89 -99 125 -123 161 -14 22 -73 103 -131 179 -58 76 -177 236 -265 355 -88 120 -170 230 -183 247 -13 16 -51 67 -84 114 -34 47 -84 111 -110 143 -27 32 -64 82 -83 110 -19 29 -82 115 -140 192 -58 77 -127 168 -153 203 -26 34 -69 91 -97 127 -27 35 -60 79 -73 97 -12 18 -42 60 -67 93 -25 33 -64 87 -87 120 -23 33 -64 87 -91 120 -27 33 -51 67 -55 75 -3 8 -24 38 -47 65 -23 28 -68 85 -99 128 -31 42 -62 77 -69 77 -7 0 -64 -46 -127 -101z"></path><path id="puptmMAAU" d="M13425 7018 c-6 -74 -30 -252 -55 -408 -19 -118 -75 -371 -116 -525 -47 -173 -173 -547 -205 -607 -5 -10 -9 -22 -9 -28 0 -6 -8 -29 -19 -53 -10 -23 -35 -80 -55 -127 -91 -207 -277 -560 -380 -720 -23 -36 -59 -92 -79 -125 -126 -203 -352 -498 -560 -730 -189 -210 -512 -514 -698 -655 -18 -14 -37 -29 -43 -35 -46 -43 -477 -341 -576 -398 -50 -30 -133 -77 -198 -115 -31 -18 -77 -41 -102 -52 -25 -11 -52 -24 -60 -30 -29 -18 -260 -130 -269 -130 -5 0 -35 -13 -67 -29 -92 -45 -209 -93 -319 -131 -233 -81 -341 -115 -457 -146 -292 -78 -653 -149 -888 -174 -58 -6 -115 -14 -127 -16 l-23 -4 0 -765 0 -765 43 0 c47 0 320 26 412 40 399 58 680 117 1087 229 42 11 182 57 310 100 208 70 258 88 333 120 11 5 36 16 55 24 19 8 46 18 60 22 14 4 57 22 95 40 39 18 117 54 175 80 211 94 527 264 779 417 83 50 399 261 457 305 282 212 341 259 473 373 254 220 590 550 748 736 23 27 48 56 55 64 7 9 36 42 64 75 28 33 58 69 67 80 9 11 42 52 74 92 32 39 90 115 128 168 39 53 79 108 91 123 28 36 194 283 194 289 0 2 20 32 44 66 24 34 63 98 87 142 24 44 57 103 75 130 49 78 214 395 267 515 14 30 43 93 64 140 22 47 46 102 52 122 7 21 17 40 22 43 5 4 9 13 9 21 0 8 9 33 19 57 102 221 280 786 345 1092 9 44 24 109 32 145 18 75 23 98 57 311 38 232 68 482 70 589 l2 95 -766 3 -767 2 -7 -82z"></path></g></g><g id="l7QtCzglrobz57O25LDjEQK" fill="rgb(1,147,38)" style="transform: none;"><g style="transform: none;"><path id="pyEBHgc53" d="M6920 15000 c-41 -5 -122 -14 -180 -20 -612 -66 -1247 -225 -1870 -469 -452 -176 -920 -420 -1345 -699 -127 -84 -415 -288 -425 -301 -3 -4 -23 -20 -45 -36 -22 -17 -104 -83 -183 -148 -649 -537 -1217 -1199 -1635 -1902 -138 -232 -284 -509 -373 -706 -25 -57 -56 -127 -69 -154 -94 -208 -237 -608 -324 -910 -125 -432 -226 -989 -257 -1412 l-7 -93 772 0 c610 0 771 3 771 13 1 87 57 454 105 683 146 697 420 1360 815 1969 46 71 111 168 144 215 65 93 343 441 402 505 161 172 427 435 533 525 785 674 1705 1123 2705 1320 165 33 380 65 501 76 44 4 88 11 98 16 16 8 17 53 15 771 l-3 762 -35 1 c-19 1 -69 -2 -110 -6z"></path><path id="p2c3hj2Rn" d="M11010 14173 c0 -10 3 -28 6 -41 6 -20 12 -23 52 -20 25 2 47 8 49 14 3 9 -83 64 -101 64 -3 0 -6 -8 -6 -17z"></path><path id="pwjVgYSpm" d="M7320 12419 c-759 -43 -1513 -271 -2160 -654 -135 -80 -410 -264 -410 -274 0 -4 19 -21 43 -37 88 -63 559 -403 892 -644 72 -52 177 -128 235 -170 58 -41 134 -97 170 -123 61 -45 544 -394 765 -552 118 -84 339 -245 479 -347 55 -40 110 -80 122 -88 23 -15 235 -168 439 -316 61 -44 166 -121 235 -171 69 -49 283 -204 475 -343 430 -311 461 -334 538 -388 34 -24 91 -65 127 -91 36 -27 157 -115 270 -196 113 -81 277 -200 365 -263 88 -64 216 -156 285 -206 69 -49 157 -113 195 -141 59 -44 200 -146 579 -418 l59 -42 -802 -3 c-440 -1 -801 -5 -801 -10 0 -7 74 -96 350 -422 267 -316 283 -335 350 -416 35 -43 67 -81 70 -84 10 -10 126 -146 162 -190 20 -25 93 -112 163 -195 70 -82 159 -188 198 -235 39 -47 76 -90 82 -96 5 -7 131 -156 279 -333 148 -177 273 -321 277 -321 23 0 295 395 405 590 333 584 522 1160 605 1835 26 218 36 655 20 880 -59 797 -295 1532 -709 2200 -196 316 -409 583 -686 861 -391 391 -789 677 -1271 914 -761 373 -1560 536 -2395 489z"></path></g></g><g id="l5R2BOlvmmnqbMtAMEetJql" fill="rgb(8,176,26)" style="transform: none;"><g style="transform: none;"><path id="p3D53pGQx" d="M8120 14240 l0 -770 23 -4 c12 -3 56 -8 97 -11 105 -9 307 -40 490 -76 1188 -230 2306 -849 3131 -1734 412 -442 710 -868 972 -1390 301 -599 491 -1223 576 -1890 l27 -210 769 0 769 0 -2 50 c-17 300 -94 793 -183 1163 -93 389 -239 829 -389 1173 -82 188 -96 217 -200 424 -602 1191 -1514 2194 -2654 2920 -108 69 -198 125 -200 125 -3 0 -56 30 -118 67 -80 47 -123 66 -146 66 -24 -1 -30 2 -23 11 8 9 -46 39 -207 118 -119 59 -237 116 -262 126 -624 273 -1293 464 -1950 557 -152 21 -457 54 -507 55 -10 0 -13 -161 -13 -770z"></path><path id="pOTQj0WdI" d="M3482 11819 c-19 -17 -32 -32 -30 -35 3 -2 20 12 38 31 42 43 37 45 -8 4z"></path></g></g><g id="lNcCkTLOgf38J63eG0iv0J" fill="rgb(218,232,160)" style="transform: none;"><g style="transform: none;"><path id="pjMU3DYux" d="M6097 9345 c-4 -9 -1 -18 9 -22 22 -8 30 5 12 23 -14 14 -16 14 -21 -1z"></path><path id="pGzyyEYlg" d="M220 7085 c-9 -11 -10 -34 -2 -97 6 -46 14 -119 17 -163 7 -99 51 -387 100 -659 8 -44 12 -83 9 -88 -3 -4 -1 -8 4 -8 10 0 13 -11 35 -130 8 -41 23 -106 35 -145 12 -38 28 -97 37 -130 64 -235 93 -328 150 -480 15 -38 34 -92 42 -120 8 -27 18 -54 23 -60 4 -5 10 -23 14 -38 4 -16 18 -52 31 -80 14 -28 25 -55 25 -59 0 -5 11 -33 24 -61 13 -29 40 -90 61 -137 53 -122 151 -327 183 -385 6 -11 13 -27 16 -35 4 -8 17 -33 30 -55 13 -22 41 -74 62 -115 21 -41 57 -104 80 -140 23 -36 49 -82 59 -102 9 -21 21 -38 26 -38 5 0 9 -4 9 -10 0 -8 108 -176 170 -265 8 -12 27 -39 41 -61 53 -79 168 -240 193 -269 14 -16 48 -59 76 -95 28 -36 68 -86 90 -112 22 -25 40 -51 40 -57 0 -5 6 -14 14 -18 8 -4 37 -35 63 -68 79 -97 104 -125 178 -201 39 -39 130 -133 202 -208 73 -75 137 -136 141 -136 5 0 43 -35 85 -77 87 -89 133 -130 232 -209 39 -30 78 -64 87 -75 9 -11 41 -36 71 -57 31 -20 75 -54 99 -75 69 -60 157 -127 166 -127 5 0 21 -11 36 -25 15 -14 31 -25 36 -25 5 0 22 -12 37 -26 15 -14 37 -30 48 -34 23 -9 148 -101 153 -112 2 -5 9 -8 15 -8 11 0 67 -34 127 -77 14 -10 47 -28 74 -41 28 -12 72 -39 98 -58 27 -19 74 -47 105 -61 30 -14 57 -33 60 -40 3 -8 11 -12 19 -9 7 3 23 -4 37 -14 13 -10 36 -22 51 -26 15 -3 30 -13 33 -20 3 -8 15 -14 27 -14 11 0 32 -9 46 -20 14 -11 29 -20 33 -20 4 0 25 -11 45 -25 20 -14 44 -25 53 -25 9 0 22 -7 29 -15 7 -8 20 -15 30 -15 10 0 53 -18 96 -40 43 -22 83 -40 89 -40 5 0 42 -16 80 -35 39 -19 75 -35 82 -35 7 0 36 -11 65 -23 95 -43 310 -122 402 -148 38 -11 77 -24 86 -29 10 -5 62 -21 116 -36 55 -14 104 -29 109 -34 6 -4 30 -11 55 -15 25 -4 52 -13 60 -20 8 -7 22 -13 30 -13 39 -2 156 -25 166 -33 7 -5 29 -12 50 -14 59 -7 138 -26 151 -37 7 -5 16 -8 20 -5 8 5 46 -1 153 -23 25 -5 61 -12 80 -15 19 -4 42 -9 50 -12 8 -3 31 -7 50 -9 82 -6 215 -26 220 -32 3 -4 51 -8 106 -9 56 -2 119 -5 140 -8 22 -3 69 -9 107 -12 l67 -6 0 750 c0 412 -3 753 -7 757 -5 4 -8 13 -8 19 0 7 -16 13 -35 15 -19 1 -88 9 -153 18 -64 8 -122 12 -128 8 -6 -3 -21 -2 -32 4 -29 14 -176 42 -257 48 -36 3 -81 13 -100 22 -19 9 -56 16 -81 17 -25 0 -52 5 -60 11 -21 17 -58 26 -103 26 -23 -1 -51 6 -63 14 -12 7 -38 14 -57 14 -21 0 -42 7 -53 19 -18 18 -45 27 -113 38 -19 3 -40 9 -46 14 -6 5 -58 25 -115 45 -57 19 -109 40 -115 45 -7 6 -24 7 -39 3 -18 -5 -32 -1 -48 13 -12 10 -35 25 -52 32 -16 7 -38 17 -47 22 -10 5 -27 9 -37 9 -11 0 -23 5 -26 11 -10 16 -116 60 -151 63 -17 1 -41 12 -54 24 -13 12 -29 22 -35 22 -17 0 -65 24 -65 32 0 11 -136 78 -158 78 -11 0 -29 9 -42 20 -13 11 -28 20 -33 20 -6 0 -22 11 -36 24 -28 26 -140 89 -181 101 -14 4 -32 16 -40 25 -8 9 -25 20 -37 24 -12 4 -35 20 -50 37 -15 16 -33 29 -40 29 -7 0 -52 30 -100 67 -48 37 -107 82 -131 100 -24 18 -51 33 -60 33 -21 1 -56 29 -65 53 -3 9 -13 17 -21 17 -9 0 -20 9 -26 20 -6 11 -17 20 -25 20 -8 0 -15 5 -15 11 0 5 -20 19 -45 30 -25 11 -43 24 -40 29 8 13 -77 90 -108 97 -18 4 -27 12 -27 25 0 10 -8 22 -17 25 -10 4 -39 29 -65 55 -26 26 -50 48 -53 48 -6 0 -133 128 -265 266 -42 43 -79 87 -83 97 -3 9 -12 17 -20 17 -7 0 -23 17 -35 39 -12 21 -40 55 -61 74 -22 20 -45 45 -51 57 -12 23 -49 65 -128 148 -23 25 -40 47 -37 50 3 3 -5 19 -18 36 -12 17 -29 44 -37 59 -8 16 -22 33 -32 38 -10 5 -18 16 -18 24 0 8 -4 15 -10 15 -5 0 -10 5 -10 10 0 19 -45 79 -62 84 -11 2 -18 14 -18 30 0 14 -4 26 -9 26 -5 0 -16 16 -26 36 -9 20 -25 46 -35 58 -11 11 -35 53 -55 91 -59 113 -66 125 -75 125 -4 0 -15 18 -24 41 -9 23 -23 48 -31 56 -8 8 -15 23 -15 33 0 10 -6 25 -12 32 -21 22 -148 287 -148 306 0 7 -4 12 -9 12 -5 0 -12 12 -16 27 -11 47 -95 226 -107 231 -5 2 -6 8 -2 13 3 5 0 9 -6 9 -6 0 -10 8 -8 18 3 24 -23 114 -39 130 -7 7 -13 23 -13 35 0 13 -6 31 -14 42 -7 11 -16 34 -18 50 -3 17 -12 50 -21 75 -9 25 -23 72 -32 105 -9 33 -25 87 -35 120 -17 54 -29 103 -31 122 -1 5 -7 24 -14 43 -7 19 -16 53 -19 75 -3 22 -12 76 -20 120 -33 167 -58 312 -66 375 -4 36 -14 110 -20 165 -9 69 -18 103 -29 112 -9 6 -19 9 -23 7 -4 -2 -9 0 -13 6 -4 7 -252 10 -734 10 -631 0 -730 -2 -741 -15z"></path><path id="pRUvkPYnc" d="M14930 7090 c0 -5 7 -10 15 -10 8 0 15 5 15 10 0 6 -7 10 -15 10 -8 0 -15 -4 -15 -10z"></path><path id="pNP2n9P2i" d="M7376 5655 c-3 -9 0 -15 9 -15 16 0 20 16 6 24 -5 3 -11 -1 -15 -9z"></path></g></g></svg>