<svg class="img-fluid" id="outputsvg" xmlns="http://www.w3.org/2000/svg" style="transform: matrix(1, 0, 0, 1, 0, 0); transform-origin: 50% 50%; cursor: move; transition: transform 200ms ease-in-out;" width="159" height="159" viewBox="0 0 1590 1590"><g id="l141Y4ZbSLoXUN4z8ivPqjB" fill="rgb(241,68,69)" style="transform: none;"><g style="transform: none;"><path id="pcxQ4MOjq" d="M655 1564 c-11 -3 -38 -11 -60 -18 -22 -8 -66 -21 -97 -31 -32 -9 -58 -20 -58 -25 0 -4 -15 -14 -32 -21 -36 -15 -146 -105 -191 -156 -80 -91 -134 -185 -173 -303 -27 -79 -29 -96 -29 -246 0 -101 4 -166 11 -175 6 -8 17 -36 24 -64 15 -54 77 -179 118 -235 37 -51 153 -159 179 -166 28 -8 74 20 96 58 22 38 15 53 -73 143 -63 65 -133 175 -154 245 -5 14 -10 30 -12 35 -33 88 -27 272 11 367 14 34 25 65 25 70 0 39 160 216 239 265 114 71 289 107 411 85 73 -14 164 -46 199 -72 16 -11 34 -20 39 -20 9 0 140 -126 172 -166 32 -41 83 -162 96 -232 42 -218 -12 -400 -167 -565 -43 -46 -81 -95 -84 -109 -9 -36 17 -82 55 -98 27 -11 35 -10 66 6 70 37 202 199 241 294 8 19 21 49 28 65 27 60 36 112 42 235 6 140 -11 264 -47 332 -11 21 -20 43 -20 48 0 18 -70 125 -125 191 -31 37 -80 86 -108 107 -58 45 -178 112 -199 112 -7 0 -26 7 -42 15 -16 9 -31 13 -34 10 -3 -3 -12 1 -20 7 -14 12 -286 22 -327 12z"></path><path id="p47MVUv84" d="M717 1126 c-101 -101 -6 -260 129 -216 96 32 118 155 41 222 -26 23 -42 28 -84 28 -46 0 -56 -4 -86 -34z"></path><path id="pYXaMFQ7R" d="M751 787 c-49 -25 -59 -54 -86 -247 -14 -102 -27 -228 -28 -281 -2 -91 -1 -97 26 -132 38 -50 75 -67 144 -67 61 0 94 15 133 60 37 43 41 90 22 260 -24 215 -43 337 -59 366 -25 48 -100 68 -152 41z"></path></g></g></svg>