<svg class="img-fluid" id="outputsvg" xmlns="http://www.w3.org/2000/svg" style="transform: none; transform-origin: 50% 50%; cursor: move;" width="126" height="125" viewBox="0 0 1260 1250"><g id="l4mrqueL4Zk4c2FKINcbqZc" fill="rgb(14,160,185)" style="transform: none;"><g><path id="p9g3Fxfqm" d="M69 823 c-6 -16 -17 -55 -25 -88 -48 -206 45 -451 222 -585 138 -104 325 -153 460 -119 52 13 56 28 11 49 -17 8 -37 26 -43 38 -7 13 -17 29 -23 35 -6 6 -11 19 -11 28 0 13 -14 17 -75 21 -57 4 -90 12 -138 36 -173 86 -257 237 -243 437 6 87 5 93 -19 125 -40 55 -99 66 -116 23z"></path><path id="pBqTVjCRI" d="M510 485 c0 -33 62 -95 95 -95 15 0 2 52 -21 79 -28 33 -74 43 -74 16z"></path></g></g><g id="l2e2mToTVph0nMV4ToVFPDg" fill="rgb(68,191,204)" style="transform: none;"><g><path id="pjY0u1XyE" d="M425 1180 c-87 -34 -205 -113 -205 -138 0 -18 59 -99 76 -106 8 -3 36 11 62 31 44 34 99 63 150 78 l22 6 0 -160 0 -161 100 0 100 0 0 92 c0 99 -21 167 -51 168 -9 0 -25 17 -35 39 -21 43 -139 171 -157 171 -7 -1 -34 -10 -62 -20z"></path><path id="pDPvE2qFV" d="M563 620 c-31 -19 -53 -48 -53 -70 0 -18 143 -150 162 -150 22 0 78 57 78 80 0 10 3 25 6 34 4 10 -5 26 -23 43 -16 16 -38 40 -47 56 -22 33 -75 37 -123 7z"></path><path id="pm7m6jGJ6" d="M1016 437 c-18 -37 -53 -85 -88 -120 -32 -32 -58 -64 -58 -72 0 -28 31 -85 58 -103 l28 -20 50 38 c53 40 123 125 150 184 16 32 16 36 0 60 -9 14 -23 26 -31 26 -8 0 -22 16 -31 35 -24 51 -44 44 -78 -28z"></path></g></g><g id="l2vUMA50BehmbUiJhwB5zoX" fill="rgb(42,176,195)" style="transform: none;"><g><path id="pscgFCjfG" d="M180 1009 c-28 -33 -64 -87 -80 -119 l-29 -58 39 -40 c44 -44 48 -44 24 -4 -16 26 -15 25 9 -3 31 -36 44 -68 29 -73 -15 -5 -3 -32 14 -32 7 0 16 12 20 28 20 90 52 156 105 217 28 31 29 35 12 44 -10 5 -31 30 -48 55 -16 25 -33 46 -37 46 -4 0 -30 -27 -58 -61z"></path><path id="pE0R2Df3l" d="M512 556 c-14 -48 -7 -66 44 -121 42 -45 46 -47 85 -42 65 9 67 20 13 68 -27 24 -68 64 -91 87 l-42 44 -9 -36z"></path><path id="p1GF6enc7q" d="M860 261 c-38 -29 -144 -61 -200 -61 -27 0 -50 -4 -50 -10 0 -5 5 -10 10 -10 6 0 10 -11 10 -24 0 -13 7 -29 15 -36 8 -7 15 -18 15 -25 0 -23 51 -55 87 -55 43 0 156 44 206 80 l37 27 -33 26 c-20 15 -39 42 -47 66 -7 23 -16 41 -19 41 -3 0 -17 -9 -31 -19z"></path></g></g><g id="l7aixZirfy5GTJzRW2buxuf" fill="rgb(88,203,211)" style="transform: none;"><g><path id="pGm6ymudg" d="M520 1208 c-25 -5 -49 -14 -54 -18 -5 -5 20 -39 60 -80 38 -39 76 -87 85 -105 21 -43 49 -73 50 -53 0 7 7 -3 15 -23 12 -28 20 -36 35 -32 18 5 19 15 19 158 0 150 0 153 -22 159 -33 8 -136 5 -188 -6z"></path><path id="p1GkxLRXPv" d="M890 925 c0 -36 2 -65 5 -65 3 0 17 7 30 16 14 9 34 14 45 11 27 -7 27 34 0 51 -11 7 -20 18 -20 26 0 14 -21 26 -46 26 -11 0 -14 -16 -14 -65z"></path><path id="pi3m5weBx" d="M1034 783 c20 -51 28 -123 21 -193 -13 -132 -12 -135 4 -148 12 -10 13 -12 1 -6 -8 4 -2 -7 14 -24 32 -34 41 -40 31 -19 -4 6 3 2 14 -11 11 -13 17 -30 14 -37 -3 -8 0 -15 6 -15 19 0 61 102 78 188 l16 77 -32 47 c-18 26 -42 55 -54 63 -12 8 -31 32 -43 53 -15 27 -28 38 -49 40 -23 3 -27 1 -21 -15z"></path><path id="pjjbqIzpV" d="M620 625 c0 -8 4 -15 9 -15 5 0 17 -13 28 -29 28 -44 82 -86 95 -73 16 16 -25 94 -61 115 -36 21 -71 22 -71 2z"></path></g></g><g id="l4rAkaKw6ytc7PBGNKu8rdO" fill="rgb(106,214,217)" style="transform: none;"><g><path id="pPK4P0Wtv" d="M890 1066 c0 -73 4 -107 13 -113 6 -4 18 -20 26 -35 8 -15 18 -25 22 -22 12 7 54 -41 70 -79 7 -17 22 -43 33 -56 12 -13 15 -21 9 -17 -26 15 -11 -6 40 -57 29 -28 64 -69 78 -89 35 -55 49 -49 49 20 0 79 -32 200 -75 280 -42 79 -43 96 -10 118 14 9 25 20 25 24 0 6 -106 56 -247 116 l-33 14 0 -104z"></path></g></g></svg>