<svg class="img-fluid" id="outputsvg" xmlns="http://www.w3.org/2000/svg" style="transform: matrix(1, 0, 0, 1, 0, 0); transform-origin: 50% 50%; cursor: move; transition: transform 200ms ease-in-out;" width="147" height="146" viewBox="0 0 1470 1460"><g id="l5jkzwqsvwtI7MYOWU7d4fE" fill="rgb(53,135,211)" style="transform: none;"><g><path id="pOVgTEMdB" d="M660 1453 c-357 -46 -624 -325 -647 -675 l-6 -88 170 0 170 0 6 63 c10 106 41 173 116 248 87 87 149 113 277 113 82 0 97 -3 155 -31 243 -120 303 -418 122 -613 -63 -69 -148 -115 -228 -125 -38 -5 -55 -12 -58 -24 -4 -14 -5 -14 -6 2 0 9 -8 17 -16 17 -13 0 -15 -26 -15 -171 l0 -172 78 7 c117 11 198 32 292 78 68 34 103 60 176 133 81 80 97 102 142 195 28 58 56 132 63 165 19 93 15 256 -10 349 -67 252 -286 460 -541 515 -57 12 -194 20 -240 14z"></path></g></g><g id="l1Yyb5X3aMsqkt4ySqpWeeI" fill="rgb(200,211,226)" style="transform: none;"><g style="transform: none;"><path id="pJbFwlgKT" d="M14 651 c9 -92 45 -204 91 -288 43 -76 188 -227 245 -256 19 -10 50 -27 67 -38 18 -12 38 -22 45 -23 7 -1 23 -7 34 -14 12 -6 24 -9 27 -5 4 3 13 1 20 -5 8 -7 17 -9 20 -6 3 3 11 3 17 -1 7 -4 43 -9 81 -12 l69 -4 0 170 0 170 -37 6 c-173 29 -301 152 -335 321 l-11 54 -170 0 -170 0 7 -69z"></path></g></g></svg>