<svg class="icon" style="width: 1em;height: 1em;vertical-align: middle;fill: #fff;overflow: hidden;" viewBox="0 0 1024 1024" version="1.1" xmlns="http://www.w3.org/2000/svg" p-id="3501"><path d="M789.376 380.586667c-25.6-39.253333-55.637333-84.181333-83.456-128.554667A3076.224 3076.224 0 0 0 589.056 93.866667l-38.4-47.786667-11.093333-13.098667-3.925334-4.522666L511.146667 0l-24.448 28.458667-3.925334 4.522666c-16.682667 20.096-33.194667 40.405333-49.493333 60.885334a2695.168 2695.168 0 0 0-116.906667 158.165333C288.554667 296.405333 258.56 341.333333 232.96 380.586667a567.125333 567.125333 0 0 0-90.709333 257.706666c-2.133333 210.602667 162.944 383.189333 368.938666 385.706667 99.328-0.768 194.261333-41.941333 263.850667-114.432s107.946667-170.325333 106.794667-271.829333A566.954667 566.954667 0 0 0 789.333333 380.586667z m-61.141333 482.133333a305.066667 305.066667 0 0 1-217.088 95.274667 305.109333 305.109333 0 0 1-216.874667-95.701334 318.976 318.976 0 0 1-86.954667-224.554666c10.154667-80.213333 38.784-156.842667 83.456-223.573334A2042.026667 2042.026667 0 0 1 369.28 290.133333a2855.509333 2855.509333 0 0 1 114.602667-154.752l27.306666-34.133333 30.037334 34.133333A4327.424 4327.424 0 0 1 655.274667 290.133333c29.482667 42.666667 55.68 84.181333 78.506666 124.032a519.082667 519.082667 0 0 1 81.792 224.128 318.933333 318.933333 0 0 1-87.338666 224.426667z m-217.088-216.448c-123.52-71.68-257.066667-145.664-257.066667 0a266.410667 266.410667 0 0 0 75.093333 186.410667 254.848 254.848 0 0 0 181.973334 77.525333 254.848 254.848 0 0 0 182.058666-77.525333 266.410667 266.410667 0 0 0 75.050667-186.453334c0-145.621333-133.546667 71.68-257.109333 0z" p-id="3502"></path></svg>