<svg class="icon" style="width: 1em;height: 1em;vertical-align: middle;fill: #fff;overflow: hidden;" viewBox="0 0 1024 1024" version="1.1" xmlns="http://www.w3.org/2000/svg" p-id="6117"><path d="M369.4 165.5l-29.8-54.7-29.8 54.7c-0.5 1-52.9 97.1-104.6 206.3-72 152.1-107 252.3-107 306.4 0 65.3 25 126.7 70.5 172.9C214.3 897.5 275 923 339.6 923s125.3-25.5 170.9-71.9C556 804.9 581 743.5 581 678.2c0-54.1-35-154.3-107-306.4-51.6-109.2-104-205.3-104.6-206.3zM339.6 855c-95.6 0-173.4-79.3-173.4-176.8 0-24.3 13-92.6 100.3-277 26.7-56.3 53.5-109.1 73.1-146.8 19.6 37.6 46.3 90.3 73 146.5C500 585.5 513 653.9 513 678.2c0 97.5-77.8 176.8-173.4 176.8zM869.6 652.6V205c0-57.1-46.5-103.6-103.6-103.6S662.4 147.9 662.4 205v447.6c-33.4 29.5-52.8 72.1-52.8 117.2 0 86.2 70.2 156.4 156.4 156.4S922.4 856 922.4 769.8c0-45.1-19.4-87.6-52.8-117.2zM766 858.2c-48.7 0-88.4-39.7-88.4-88.4 0-29 14.3-56.2 38.2-72.7l14.6-10.1V205c0-19.6 16-35.6 35.6-35.6s35.6 16 35.6 35.6v481.9l14.6 10.1c23.9 16.5 38.2 43.7 38.2 72.7 0 48.8-39.7 88.5-88.4 88.5zM327.4 751.7c-13.8-3.2-24.9-9.9-33.6-20.3-21.2-25.1-23.9-65.4-23.5-88.5 0.2-10.2-7.3-18.8-17.4-20.1-11.8-1.5-22.4 7.6-22.6 19.5-0.5 29 3.4 79.9 32.8 114.8 14.5 17.3 33.1 28.5 55.5 33.7 12.1 2.8 23.7-6.3 24.3-18.7 0.4-9.7-6.1-18.2-15.5-20.4zM573.8 156.6h-76c-18.8 0-34 15.2-34 34s15.2 34 34 34h76c18.8 0 34-15.2 34-34s-15.2-34-34-34zM573.8 279.8h-14c-18.8 0-34 15.2-34 34s15.2 34 34 34h14c18.8 0 34-15.2 34-34s-15.2-34-34-34z" p-id="6118"></path></svg>