<svg class="icon" style="width: 1em;height: 1em;vertical-align: middle;fill: #fff;overflow: hidden;" viewBox="0 0 1024 1024" version="1.1" xmlns="http://www.w3.org/2000/svg" p-id="7132"><path d="M958.9 412.4c-26.4-27-59.8-45-96.2-52.3-5.9-65.3-34.2-126-81.1-172.9-53-53-123.5-82.2-198.5-82.2-103.8 0-197.8 57.1-246.4 146-19.2-10.4-40.9-16-63.4-16-72.3 0-131.4 58-133 129.9-31.4 10.3-59.8 28.9-82 54.1C28.5 453 12 496.7 12 542c0 102.7 83.6 186.3 186.4 186.3h627.9c49 0 95.4-19.3 130.7-54.3 35.5-35.3 55-82 55-131.6 0-48.9-18.8-95-53.1-130zM649.1 773.9l-86.5 86.5c-13.4 13.4-13.4 35.1 0 48.5 6.7 6.7 15.5 10.1 24.3 10.1s17.6-3.4 24.3-10.1l86.5-86.5c13.4-13.4 13.4-35.1 0-48.5-13.5-13.4-35.2-13.4-48.6 0zM547.3 758c-13.4-13.4-35.1-13.4-48.5 0L396.3 860.4c-13.4 13.4-13.4 35.1 0 48.5 6.7 6.7 15.5 10.1 24.3 10.1s17.6-3.4 24.3-10.1l102.4-102.4c13.4-13.4 13.4-35.1 0-48.5z m-166.2 15.9c-13.4-13.4-35.1-13.4-48.5 0L246 860.4c-13.4 13.4-13.4 35.1 0 48.5 6.7 6.7 15.5 10.1 24.3 10.1s17.6-3.4 24.3-10.1l86.5-86.5c13.4-13.4 13.4-35.1 0-48.5z" p-id="7133"></path></svg>