<svg viewBox="0 0 2400 383" xmlns="http://www.w3.org/2000/svg" fill-rule="evenodd" clip-rule="evenodd" stroke-linejoin="round" stroke-miterlimit="2"><path d="M344.266 379.186c-1.256-2.127-2.9-6.283-3.576-9.183-1.45-6.38-3.48-11.89-5.026-13.726-.58-.773-1.354-3.866-1.74-6.96-.387-2.996-1.063-5.799-1.547-6.089-.483-.29-.87-1.16-.87-2.03 0-.773-.58-2.803-1.353-4.446-.773-1.74-2.03-5.51-2.803-8.41-1.353-5.22-2.997-10.149-4.736-14.015-.387-1.064-1.16-4.157-1.74-6.96-.967-5.606-3.287-11.502-5.22-13.822-.677-.773-1.837-4.253-2.416-7.733-1.644-8.506-3.867-16.239-5.027-16.915-.483-.387-.87-1.547-.87-2.804 0-2.706-3.673-13.919-5.51-16.529-.676-1.063-1.256-2.803-1.256-3.866 0-2.32-3.963-14.596-5.606-17.592-.677-1.16-1.16-2.997-1.16-4.06 0-2.223-3.383-13.049-5.026-15.949-.58-1.063-2.224-6.09-3.674-11.212-3.673-12.856-7.152-19.526-12.469-23.972-10.149-8.506-6.96-8.216-106.52-8.603l-86.607-.386-3.093 2.513-2.996 2.61-.194 51.81-.29 51.906-12.565.58c-6.863.387-22.812.387-35.281 0l-22.715-.58-.58-2.9c-.387-1.546-.677-62.346-.774-135.034C.93 11.781 1.026 2.598 2.573 1.825c2.03-1.16 69.015-.29 70.272.87.483.386.87 23.198.966 52.39.097 42.24.29 51.906 1.45 53.162 1.16 1.547 7.443 1.644 72.012 1.644 62.443 0 70.949-.194 72.882-1.547 1.16-.773 2.126-2.223 2.126-3.19 0-.966 1.354-4.736 2.997-8.41 1.643-3.672 3.77-8.409 4.736-10.535.967-2.223 2.127-5.22 2.513-6.766.387-1.547 1.934-5.413 3.48-8.506 1.547-3.19 3.093-7.347 3.383-9.28.387-1.933 1.45-4.543 2.417-5.896.966-1.353 2.61-5.22 3.576-8.7 1.063-3.48 2.997-8.602 4.35-11.309 1.353-2.803 2.9-7.056 3.48-9.472.58-2.417 1.353-5.123 1.836-6.09.483-.87 1.16-2.32 1.547-3.093.29-.773 1.16-2.513 1.933-3.866.773-1.354 1.45-3.577 1.45-4.93 0-1.547.966-3.19 2.803-4.543 2.803-2.03 3.576-2.127 35.57-2.127h35.862c2.706 0 3.093.29 3.093 2.707 0 3.093-2.513 11.212-4.446 14.209-.677 1.063-1.74 4.156-2.417 6.766-.677 2.707-2.416 7.54-3.963 10.826-1.45 3.383-2.707 6.476-2.707 7.056 0 .483-1.063 3.19-2.32 5.8-1.256 2.61-2.9 7.056-3.576 9.86-.676 2.802-1.836 5.799-2.513 6.669-.677.773-1.257 2.03-1.257 2.706 0 .58-.58 2.127-1.353 3.287-.773 1.16-1.643 3.673-2.03 5.51-.386 1.836-1.546 5.316-2.706 7.732-1.063 2.417-3.093 7.733-4.64 11.89-1.45 4.059-3.383 8.409-4.156 9.569-.87 1.16-1.547 3.963-1.547 6.186 0 4.736 2.127 6.96 9.28 9.666 2.32.87 4.253 2.03 4.253 2.513 0 .483 2.416 2.03 5.316 3.286 2.996 1.354 6.09 3.577 6.96 4.833.87 1.354 2.706 2.997 4.06 3.674 5.122 2.706 14.112 13.242 18.171 21.361 1.354 2.707 2.997 5.51 3.577 6.283 1.353 1.74 11.212 31.801 11.212 34.218 0 .58.774 2.61 1.837 4.446.966 1.837 2.03 5.607 2.416 8.216.387 2.707 1.934 7.927 3.48 11.6 1.45 3.77 3.383 9.376 4.35 12.565.966 3.19 2.513 8.217 3.48 11.116.87 2.9 1.933 6.67 2.32 8.216.29 1.644 1.643 5.123 2.996 7.927 1.256 2.706 2.32 5.8 2.32 6.766 0 .966.966 3.48 2.03 5.606 1.16 2.03 2.416 5.993 2.803 8.7.87 5.123 3.093 12.565 5.316 17.398 1.353 3.093 1.837 4.543 5.8 18.366 1.353 4.833 3.093 10.246 3.866 12.082.677 1.837 2.03 6.67 2.9 10.633.87 3.963 2.223 8.12 2.9 9.183.676 1.16 1.74 4.543 2.416 7.636.58 3.093 2.417 8.7 4.06 12.372 1.74 4.157 2.61 7.636 2.32 8.99-.484 2.03-1.257 2.223-11.89 2.803-6.282.386-22.231.58-35.474.483l-23.971-.29-2.514-3.866zM492.93 272.763c-2.9-.677-9.57-2.223-14.79-3.383-9.279-2.127-13.048-3.77-31.124-14.21-4.06-2.32-8.023-5.509-10.053-8.119-1.74-2.32-3.963-4.64-4.93-5.22-2.222-1.256-7.442-8.119-11.792-15.658-3.673-6.186-6.96-16.432-8.023-25.325-.966-7.25-1.16-112.126-.29-120.439 1.45-13.725 3.094-20.395 6.767-28.031 2.126-4.253 4.446-8.41 5.22-9.28.773-.773 1.353-1.836 1.353-2.126 0-.387.773-1.45 1.74-2.417 3.673-3.866 9.182-10.342 10.535-12.469.87-1.256 1.934-2.223 2.417-2.223.483 0 2.9-1.353 5.413-3.093 5.993-4.06 24.358-13.34 26.678-13.34.967 0 5.51-1.256 10.15-2.802l8.312-2.9 135.614-.193c105.456-.194 135.808 0 136.774.966 1.45 1.45 1.064 49.297-.386 50.843-.677.677-45.624 1.16-129.235 1.45l-128.268.484-5.51 2.32c-7.249 2.996-11.792 7.442-13.145 12.952-1.643 6.186-2.61 18.075-1.547 18.075.483 0 .967 4.157 1.063 9.183.097 5.703.58 9.763 1.257 10.633 1.063 1.256 16.529 1.45 116.669 1.45 77.714 0 116.089.29 117.345.966 1.74.967 1.837 2.32 1.837 26.582 0 19.138-.29 25.711-1.16 26.195-.677.483-53.55.87-117.539.966-110.386.29-116.475.387-117.635 2.03-.87 1.257-1.257 6.09-1.257 17.979 0 17.495 1.16 24.552 4.157 26.195 1.063.58 2.513 1.836 3.19 2.803.676.87 2.706 2.416 4.349 3.286 2.9 1.644 12.083 1.74 133.584 2.03 71.819.097 131.071.484 131.748.677.87.29 1.16 6.476 1.16 26.581v26.099l-2.513.966c-3.963 1.547-261.466 1.063-268.135-.483zm322.554-.387c-1.74-2.126-1.643-268.232.097-269.971 1.063-1.064 26.678-1.257 135.807-1.257 125.852 0 134.841.097 139.384 1.74 9.666 3.383 16.916 5.51 18.56 5.51.966 0 4.735 1.546 8.312 3.383 3.673 1.836 7.056 3.383 7.636 3.383 1.063 0 8.41 5.606 11.89 9.182 1.16 1.064 4.156 3.867 6.765 6.283 2.707 2.417 5.607 5.607 6.573 7.057.967 1.546 2.513 3.48 3.383 4.446.87.87 2.707 3.866 4.06 6.476 1.353 2.61 2.9 5.413 3.577 6.186.58.774 2.126 5.607 3.286 10.633 4.35 18.075 2.03 36.827-6.476 51.133-5.123 8.603-8.41 13.436-10.633 15.756-2.32 2.416-2.03 9.182.483 11.599 1.16.967 2.03 2.417 2.03 3.093 0 .773 1.064 2.03 2.417 2.9 1.256.87 3.286 3.673 4.446 6.283 1.063 2.61 2.803 5.51 3.77 6.38 1.063.966 2.126 3.672 2.416 6.186.387 2.416 1.354 6.67 2.224 9.279 1.933 6.283 1.933 20.009-.194 29.771-1.643 7.926-7.54 20.589-12.566 27.258-3.77 4.93-13.822 14.983-17.398 17.496-8.603 5.896-21.556 12.952-23.682 12.952-.483 0-1.353.58-1.933 1.354-.58.676-3.383 1.643-6.09 1.933-2.706.386-6.476 1.45-8.41 2.32-3.866 1.74-11.309 1.836-193.223 2.32-72.398.29-85.544.096-86.51-1.064zm260.306-54.806c8.41-.677 9.473-1.45 14.112-9.666 2.997-5.413 3.287-6.573 3.287-14.016 0-4.446-.483-10.052-1.063-12.372-1.354-6.186-7.54-12.663-14.403-15.08-5.123-1.74-8.892-1.836-94.727-2.126-49.2-.193-90.28-.193-91.44.097-3.867.967-4.35 4.446-4.156 27.548.096 16.626.483 22.329 1.45 23.972 1.353 2.126 1.933 2.223 19.525 2.416 32.188.484 159.972-.096 167.415-.773zm.58-108.84c6.186-1.16 9.86-3.672 13.63-9.182 2.222-3.286 2.416-4.446 2.512-16.626.097-9.956-.193-13.725-1.256-15.755-2.03-3.577-8.216-7.83-14.5-9.86-4.929-1.643-11.019-1.74-94.243-1.643-48.91.097-89.99.484-91.344.774-1.353.29-2.706 1.063-3.093 1.643-.387.58-.773 11.792-.773 24.938 0 23.585 0 23.875 2.126 25.325 1.934 1.353 12.276 1.547 91.73 1.547 64.086 0 91.055-.29 95.211-1.16zm222.898 164.033c-4.833-.677-10.052-1.643-11.599-2.223-1.45-.58-4.06-1.257-5.8-1.547-4.833-.87-14.692-5.22-21.941-9.86-13.243-8.312-15.853-10.245-19.43-14.112-5.799-6.38-12.468-15.272-14.885-20.105-6.863-13.436-6.573-12.276-7.733-28.998-.676-10.342-.966-34.218-.773-68.145.483-66.31.87-68.726 13.92-86.028 2.706-3.673 6.475-8.12 8.312-9.86 10.343-9.955 14.982-13.918 17.592-14.981 1.643-.677 6.186-2.9 10.15-4.93 3.866-2.03 10.825-4.736 15.465-6.09 4.543-1.353 9.473-2.803 10.826-3.286 3.963-1.16 187.134-2.223 199.023-1.16 9.183.87 27.548 5.703 34.314 9.086 13.823 6.766 30.158 19.912 35.765 28.805 1.16 1.836 2.803 3.963 3.673 4.64.87.773 2.03 2.9 2.706 4.832.58 1.934 2.32 5.123 3.673 6.96 5.027 6.476 5.413 13.05 5.413 82.644 0 46.397-.29 64.473-1.256 69.209-1.064 5.993-6.38 17.785-9.473 21.265-.773.774-1.353 1.933-1.353 2.417 0 1.353-13.823 17.592-16.53 19.428-1.256.87-2.802 2.03-3.286 2.707-.58.677-3.19 2.32-5.8 3.77-2.706 1.353-5.509 2.9-6.282 3.383-6.09 3.383-16.722 7.733-20.299 8.313-2.416.386-6.09 1.353-8.216 2.126-2.126.773-5.993 1.643-8.7 1.933-2.609.29-46.106.58-96.66.774-70.078.193-93.953 0-100.816-.967zm190.517-55.676c4.833-1.354 11.503-7.926 12.953-12.953 1.836-5.993 1.74-126.721 0-130.008-5.51-10.052-9.57-15.465-11.696-15.465-.483 0-1.643-.677-2.61-1.547-1.45-1.353-11.02-1.45-88.444-1.353-91.924.097-92.987.097-99.85 4.543-1.546.967-3.963 3.19-5.51 5.026l-2.803 3.383v137.354l2.804 3.674c4.543 5.896 7.249 7.346 15.658 8.119 11.793 1.16 175.052.483 179.498-.773zm138.611 55.386c-1.547-1.643-1.643-12.373-1.643-134.744 0-127.882.096-133.005 1.74-134.551 1.643-1.45 12.372-1.547 140.93-1.547 78.391 0 140.544.387 142.477.87 13.049 3.383 21.942 6.187 23.198 7.346.87.774 2.707 1.45 4.06 1.45 1.353 0 5.22 2.127 9.183 5.027 3.77 2.803 8.7 6.476 10.922 8.022 3.577 2.514 10.343 9.86 18.85 20.396 1.352 1.74 3.189 5.22 4.059 7.733.87 2.61 2.706 7.152 4.06 10.052l2.513 5.317V208l-2.803 6.283c-5.123 11.502-6.38 14.015-8.797 16.915-1.353 1.643-2.416 3.287-2.416 3.673 0 1.45-20.202 20.975-21.555 20.975-.774 0-3.19 1.354-5.317 2.9-2.223 1.643-4.253 2.9-4.543 2.9-.29 0-3.77 1.547-7.732 3.383-3.963 1.837-10.343 3.963-14.21 4.736-3.866.87-9.665 2.224-12.855 2.997-4.93 1.16-25.518 1.353-142.187 1.45-130.878 0-136.484-.097-137.934-1.74zm275.964-56.546c1.45-.967 4.447-4.253 6.767-7.153l4.156-5.413V71.71l-2.127-3.093c-1.256-1.643-2.223-3.383-2.223-3.867 0-1.933-4.64-4.93-11.116-7.056l-6.766-2.223h-187.23l-2.03 2.127-2.127 2.126-.29 76.941c-.193 68.243-.096 77.232 1.257 79.262l1.546 2.223 98.787-.193c93.76-.29 98.883-.387 101.396-2.03zm142.67 57.609c-3.866-.29-6.862-.87-7.539-1.74-1.353-1.643-.773-199.7.677-206.659.58-2.513 1.836-5.8 2.9-7.25 1.063-1.45 2.32-3.77 2.706-5.026 1.063-3.576 6.96-12.179 13.436-19.622 5.606-6.476 18.752-16.432 24.262-18.365 1.643-.58 4.543-2.223 6.572-3.673 2.03-1.45 5.413-2.9 7.637-3.287 2.126-.386 7.926-2.03 12.759-3.576l8.796-2.803h100.816l100.72.096 8.023 2.513c14.982 4.737 16.529 5.317 21.748 8.217 2.804 1.546 5.993 2.803 7.153 2.803 3.093 0 17.882 12.276 24.165 20.202 9.956 12.372 13.34 18.172 15.273 26.195 3.963 16.625 3.866 12.759 3.866 113.382 0 88.057-.097 96.273-1.547 97.433-1.353 1.064-8.409 1.354-35.28 1.45-32.188 0-33.832 0-35.475-1.836-1.45-1.644-1.643-5.027-1.74-38.181l-.096-36.248-2.997-2.803-3.093-2.706h-101.106c-106.81 0-105.36-.097-107.003 4.253-.29.773-.58 16.722-.58 35.57-.097 34.605-.483 40.308-2.417 40.888-1.643.483-55.192 1.16-62.635.773zm277.512-138.127l2.223-1.547-.387-31.318-.29-31.22-3.866-5.51c-3.576-5.027-4.543-5.703-10.633-7.733l-6.766-2.32h-172.828l-6.09 2.9c-3.576 1.643-6.96 4.156-8.41 5.993-4.832 6.67-5.025 7.83-4.735 39.92.193 26.872.386 30.062 1.836 31.222 1.257.87 23.779 1.16 104.683 1.16 93.374 0 103.233-.194 105.263-1.547z" fill="#e30318" fill-rule="nonzero"/></svg>