<svg viewBox="0 0 230 146" xmlns="http://www.w3.org/2000/svg" fill-rule="evenodd" clip-rule="evenodd"><path d="M61.512 132.338l2.06-11.62 2.658.472-2.06 11.62-2.658-.472z" fill="#6cb33f"/><path d="M61.512 132.338l2.06-11.62 2.658.472-2.06 11.62-2.658-.472z" fill="none" stroke="#6cb33f" stroke-width="5.95"/><path d="M48 128.095l4.565-10.88 2.49 1.044-4.565 10.88-2.49-1.044z" fill="#6cb33f"/><path d="M48 128.095l4.565-10.88 2.49 1.044-4.565 10.88-2.49-1.044z" fill="none" stroke="#6cb33f" stroke-width="5.95"/><path d="M35.751 120.876l6.84-9.615 2.2 1.565-6.84 9.615-2.2-1.565z" fill="#6cb33f"/><path d="M35.751 120.876l6.84-9.615 2.2 1.565-6.84 9.615-2.2-1.565z" fill="none" stroke="#6cb33f" stroke-width="5.95"/><path d="M25.437 111.265l8.773-7.89 1.806 2.007-8.773 7.89-1.806-2.007z" fill="#6cb33f"/><path d="M25.437 111.265l8.773-7.89 1.806 2.007-8.773 7.89-1.806-2.007z" fill="none" stroke="#6cb33f" stroke-width="5.95"/><path d="M17.405 99.558L27.69 93.77l1.324 2.353-10.283 5.788-1.326-2.353z" fill="#96c573"/><path d="M17.405 99.558L27.69 93.77l1.324 2.353-10.283 5.788-1.326-2.353z" fill="none" stroke="#96c573" stroke-width="4.76"/><path d="M12.075 86.472l11.301-3.396.777 2.586-11.3 3.396-.778-2.586z" fill="#96c573"/><path d="M12.075 86.472l11.301-3.396.777 2.586-11.3 3.396-.778-2.586z" fill="none" stroke="#96c573" stroke-width="4.76"/><path d="M9.817 72.432l11.772-.824.189 2.694-11.772.823-.189-2.693z" fill="#96c573"/><path d="M9.817 72.432l11.772-.824.189 2.694-11.772.823-.189-2.693z" fill="none" stroke="#96c573" stroke-width="4.76"/><path d="M10.311 60.908l.398-2.67 11.672 1.737-.398 2.67-11.672-1.737z" fill="#96c573"/><path d="M10.311 60.908l.398-2.67 11.672 1.737-.398 2.67-11.672-1.737z" fill="none" stroke="#96c573" stroke-width="4.76"/><path d="M13.629 47.1l.975-2.517 11.003 4.264-.976 2.517L13.629 47.1z" fill="#a3cb84"/><path d="M13.629 47.1l.975-2.517 11.003 4.264-.976 2.517L13.629 47.1z" fill="none" stroke="#a3cb84" stroke-width="2.98"/><path d="M19.934 34.45l1.505-2.242 9.797 6.579-1.505 2.241-9.797-6.578z" fill="#a3cb84"/><path d="M19.934 34.45l1.505-2.242 9.797 6.579-1.505 2.241-9.797-6.578z" fill="none" stroke="#a3cb84" stroke-width="2.98"/><path d="M28.844 23.464l1.957-1.86 8.13 8.552-1.957 1.86-8.13-8.552z" fill="#a3cb84"/><path d="M28.844 23.464l1.957-1.86 8.13 8.552-1.957 1.86-8.13-8.552z" fill="none" stroke="#a3cb84" stroke-width="2.98"/><path d="M39.973 14.628l2.315-1.39 6.071 10.12-2.315 1.388-6.071-10.118z" fill="#bfdaa8"/><path d="M39.973 14.628l2.315-1.39 6.071 10.12-2.315 1.388-6.071-10.118z" fill="none" stroke="#bfdaa8" stroke-width="2.38"/><path d="M52.712 8.426l2.563-.848 3.707 11.203-2.563.848-3.707-11.203z" fill="#bfdaa8"/><path d="M52.712 8.426l2.563-.848 3.707 11.203-2.563.848-3.707-11.203z" fill="none" stroke="#bfdaa8" stroke-width="2.38"/><path d="M66.527 5.171l2.687-.262 1.148 11.744-2.687.263-1.148-11.745z" fill="#bfdaa8"/><path d="M66.527 5.171l2.687-.262 1.148 11.744-2.687.263-1.148-11.745z" fill="none" stroke="#bfdaa8" stroke-width="2.38"/><path d="M79.212 16.768l1.422-11.714 2.68.325-1.422 11.714-2.68-.325z" fill="#dcead0"/><path d="M79.212 16.768l1.422-11.714 2.68.325-1.422 11.714-2.68-.325z" fill="none" stroke="#dcead0" stroke-width="1.19"/><path d="M90.63 19.102l3.96-11.117 2.543.906-3.959 11.117-2.544-.906z" fill="#dcead0"/><path d="M90.63 19.102l3.96-11.117 2.543.906-3.959 11.117-2.544-.906z" fill="none" stroke="#dcead0" stroke-width="1.19"/><path d="M101.096 23.943l6.302-9.976 2.283 1.442-6.303 9.976-2.282-1.442zm9.317 7.009l8.326-8.362 1.913 1.905-8.326 8.362-1.913-1.905z" fill="#ebf3e5"/><text font-family="'STHeitiSC-Medium','Heiti SC'" font-size="36" fill="#6cb33f" transform="translate(120.652 82.019)">安诺赛</text><text font-family="'Kefa-Regular','Kefa'" font-size="24" fill="#6cb33f" transform="translate(77.206 133.339) skewX(-15)">energy saving</text><g><g transform="translate(47.528 44.26) scale(.09218)"><clipPath id="a"><path d="M0 0h576v512H0z"/></clipPath><g clip-path="url(#a)"><path d="M546.2 9.7c-5.6-12.5-21.6-13-28.3-1.2C486.9 62.4 431.4 96 368 96h-80C182 96 96 182 96 288c0 7 .8 13.7 1.5 20.5C161.3 262.8 253.4 224 384 224c8.8 0 16 7.2 16 16s-7.2 16-16 16C132.6 256 26 410.1 2.4 468c-6.6 16.3 1.2 34.9 17.5 41.6 16.4 6.8 35-1.1 41.8-17.3 1.5-3.6 20.9-47.9 71.9-90.6 32.4 43.9 94 85.8 174.9 77.2C465.5 467.5 576 326.7 576 154.3c0-50.2-10.8-102.2-29.8-144.6z" fill="#6cb33f" fill-rule="nonzero"/></g></g></g></svg>