<svg viewBox="0 0 1400 100" xmlns="http://www.w3.org/2000/svg" fill-rule="evenodd" clip-rule="evenodd" stroke-linecap="round" stroke-linejoin="round" stroke-miterlimit="1.5"><path d="M649.3.326l-8.85 10.41 99.922-.173-9.535-9.535" fill="none" stroke="#0f4283" stroke-width="1.33"/><path d="M654.524.293l-6.557 7.013 85.504.381L726.875.45 654.524.293zM665.201 95.286l-12.425-8.9 74.413.02-12.003 8.664-13.93.06-.095 3.438-22.28.117.015-3.458-13.695.06z" fill="#1d96ca"/><path d="M643.064.484L639.842.38l-9.012 9.466-59.742-.133.041 2.727 60.685-.035L643.064.484z" fill="#0f4283"/><path d="M412.539 29.553l2.567 1.037L439.8 12.582l89.734.231-.011-2.824-90.707.035-26.277 19.53z" fill="#0fcfce"/><path d="M538.615 9.966l.038 2.716 22.971.073-.011-2.824-22.998.035z" fill="#3dad78"/><g><path d="M605.177 84.623l38.542-.06 17.411 12.706 13.978-.036-.011 2.823-14.951-.229-17.196-12.536-37.736-.083-.037-2.585z" fill="#0f4283"/><path d="M561.217 87.262l.018-2.544 33.259-.231-.011 2.824-33.266-.05z" fill="#13a3cd"/><path d="M435.439 67.747l2.567-1.037L462.7 84.718l89.734-.231-.011 2.824-90.707-.035-26.277-19.53z" fill="#0f4283"/><path d="M791.784 45.188l-.01-2.519 282.326-.004.04 2.503-282.356.02z" fill="url(#_Linear1)" transform="rotate(180 527.967 27.464)"/><path d="M384.64 41.56l-1.986 1.11-27.925-19.536-25.606.051-.013-2.248 26.368.067L384.64 41.56z" fill="#0f4283"/><path d="M432.99 62.095l-2.635 1.195-68.467-50.838-87.431-.002-.045-2.502 88.663-.015 69.915 52.162z" fill="#0f4283"/></g><g><path d="M736.896.484l3.222-.104 9.012 9.466 59.742-.133-.041 2.727-60.685-.035L736.896.484z" fill="#0f4283"/><path d="M967.421 29.553l-2.567 1.037-24.694-18.008-89.734.231.011-2.824 90.707.035 26.277 19.53z" fill="#0fcfce"/><path d="M841.345 9.966l-.038 2.716-22.971.073.011-2.824 22.998.035z" fill="#3dad78"/><g><path d="M774.783 84.623l-38.542-.06-17.411 12.706-13.978-.036.011 2.823 14.951-.229 17.196-12.536 37.736-.083.037-2.585z" fill="#0f4283"/><path d="M818.743 87.262l-.018-2.544-33.259-.231.011 2.824 33.266-.05z" fill="#13a3cd"/><path d="M944.521 67.747l-2.567-1.037-24.694 18.008-89.734-.231.011 2.824 90.707-.035 26.277-19.53z" fill="#0f4283"/><path d="M791.784 45.188l-.01-2.519 282.326-.004.04 2.503-282.356.02z" fill="url(#_Linear2)" transform="matrix(1 0 0 -1 324.026 54.928)"/><path d="M995.32 41.56l1.986 1.11 27.925-19.536 25.606.051.013-2.248-26.368.067L995.32 41.56z" fill="#0f4283"/><path d="M946.97 62.095l2.635 1.195 68.467-50.838 87.431-.002.045-2.502-88.663-.015-69.915 52.162z" fill="#0f4283"/></g></g><g><path d="M467.654 25.037l449.643-.303" fill="none" stroke="url(#_Linear3)" stroke-width="2" stroke-linecap="square" stroke-linejoin="miter" transform="translate(-4.028 -.644)"/></g><g><path d="M467.654 25.037l449.643-.303" fill="none" stroke="url(#_Linear4)" stroke-width="2" stroke-linecap="square" stroke-linejoin="miter" transform="translate(-4.028 49.752)"/></g><defs><linearGradient id="_Linear1" x1="0" y1="0" x2="1" y2="0" gradientUnits="userSpaceOnUse" gradientTransform="matrix(282.366 0 0 2.52281 791.774 43.927)"><stop offset="0" stop-color="#13a2cb"/><stop offset="1" stop-color="#fff" stop-opacity="0"/></linearGradient><linearGradient id="_Linear2" x1="0" y1="0" x2="1" y2="0" gradientUnits="userSpaceOnUse" gradientTransform="matrix(282.366 0 0 2.52281 791.774 43.927)"><stop offset="0" stop-color="#13a2cb"/><stop offset="1" stop-color="#fff" stop-opacity="0"/></linearGradient><linearGradient id="_Linear3" x1="0" y1="0" x2="1" y2="0" gradientUnits="userSpaceOnUse" gradientTransform="matrix(449.642 0 0 .30312 467.654 24.886)"><stop offset="0" stop-color="#fff" stop-opacity="0"/><stop offset=".1" stop-color="#afc2cf" stop-opacity=".4"/><stop offset=".21" stop-color="#5c839d" stop-opacity=".81"/><stop offset=".5" stop-color="#356686"/><stop offset=".79" stop-color="#356686" stop-opacity=".81"/><stop offset=".9" stop-color="#356686" stop-opacity=".4"/><stop offset="1" stop-color="#356686" stop-opacity="0"/></linearGradient><linearGradient id="_Linear4" x1="0" y1="0" x2="1" y2="0" gradientUnits="userSpaceOnUse" gradientTransform="matrix(449.642 0 0 .30312 467.654 24.886)"><stop offset="0" stop-color="#fff" stop-opacity="0"/><stop offset=".1" stop-color="#afc2cf" stop-opacity=".4"/><stop offset=".21" stop-color="#5c839d" stop-opacity=".81"/><stop offset=".5" stop-color="#356686"/><stop offset=".79" stop-color="#356686" stop-opacity=".81"/><stop offset=".9" stop-color="#356686" stop-opacity=".4"/><stop offset="1" stop-color="#356686" stop-opacity="0"/></linearGradient></defs></svg>